<svg width="19" height="21" viewBox="0 0 19 21" fill="none" xmlns="http://www.w3.org/2000/svg">
<path fill-rule="evenodd" clip-rule="evenodd" d="M6.66699 5.09668C6.66699 3.43983 8.01014 2.09668 9.66699 2.09668C11.3238 2.09668 12.667 3.43983 12.667 5.09668C12.667 6.75353 11.3238 8.09668 9.66699 8.09668C8.01014 8.09668 6.66699 6.75353 6.66699 5.09668ZM9.66699 0.0966797C6.90557 0.0966797 4.66699 2.33526 4.66699 5.09668C4.66699 7.8581 6.90557 10.0967 9.66699 10.0967C12.4284 10.0967 14.667 7.8581 14.667 5.09668C14.667 2.33526 12.4284 0.0966797 9.66699 0.0966797ZM5.66699 12.0967C4.34091 12.0967 3.06914 12.6235 2.13146 13.5611C1.19378 14.4988 0.666992 15.7706 0.666992 17.0967V19.0967C0.666992 19.649 1.11471 20.0967 1.66699 20.0967C2.21928 20.0967 2.66699 19.649 2.66699 19.0967V17.0967C2.66699 16.301 2.98306 15.538 3.54567 14.9754C4.10828 14.4128 4.87134 14.0967 5.66699 14.0967H13.667C14.4626 14.0967 15.2257 14.4128 15.7883 14.9754C16.3509 15.538 16.667 16.301 16.667 17.0967V19.0967C16.667 19.649 17.1147 20.0967 17.667 20.0967C18.2193 20.0967 18.667 19.649 18.667 19.0967V17.0967C18.667 15.7706 18.1402 14.4988 17.2025 13.5611C16.2648 12.6235 14.9931 12.0967 13.667 12.0967H5.66699Z" fill="black"/>
</svg>
