<svg width="26" height="22" viewBox="0 0 26 22" fill="none" xmlns="http://www.w3.org/2000/svg">
<path fill-rule="evenodd" clip-rule="evenodd" d="M3.4222 2.52218C3.62849 2.31589 3.90828 2.2 4.20002 2.2H21.8C22.0917 2.2 22.3715 2.31589 22.5778 2.52218C22.7841 2.72847 22.9 3.00826 22.9 3.29999V14.3C22.9 14.5917 22.7841 14.8715 22.5778 15.0778C22.3715 15.2841 22.0917 15.4 21.8 15.4H20.7C20.0925 15.4 19.6 15.8925 19.6 16.5C19.6 17.1075 20.0925 17.6 20.7 17.6H21.8C22.6752 17.6 23.5146 17.2523 24.1334 16.6334C24.7523 16.0145 25.1 15.1752 25.1 14.3V3.29999C25.1 2.42478 24.7523 1.58541 24.1334 0.966546C23.5146 0.347677 22.6752 0 21.8 0H4.20002C3.32481 0 2.48544 0.347677 1.86657 0.966546C1.2477 1.58541 0.900024 2.42478 0.900024 3.29999V14.3C0.900024 15.1752 1.2477 16.0145 1.86657 16.6334C2.48544 17.2523 3.3248 17.6 4.20002 17.6H5.30002C5.90753 17.6 6.40001 17.1075 6.40001 16.5C6.40001 15.8925 5.90753 15.4 5.30002 15.4H4.20002C3.90828 15.4 3.62849 15.2841 3.4222 15.0778C3.21591 14.8715 3.10002 14.5917 3.10002 14.3V3.29999C3.10002 3.00826 3.21591 2.72847 3.4222 2.52218ZM13.8451 13.5958C13.6361 13.345 13.3265 13.2 13 13.2C12.6736 13.2 12.364 13.345 12.155 13.5958L6.65499 20.1957C6.38175 20.5236 6.32285 20.98 6.50389 21.3665C6.68493 21.753 7.07322 21.9999 7.50003 21.9999H18.5C18.9268 21.9999 19.3151 21.753 19.4962 21.3665C19.6772 20.98 19.6183 20.5236 19.3451 20.1957L13.8451 13.5958ZM13 16.0182L16.1515 19.7999H9.84858L13 16.0182Z" fill="black"/>
</svg>
