<svg width="23" height="23" viewBox="0 0 23 23" fill="none" xmlns="http://www.w3.org/2000/svg">
<path fill-rule="evenodd" clip-rule="evenodd" d="M21.9295 11.4999C21.9295 11.8944 21.6097 12.2143 21.2152 12.2143H1.01025C0.615721 12.2143 0.295895 11.8944 0.295895 11.4999C0.295896 11.1054 0.615721 10.7856 1.01025 10.7856H21.2152C21.6097 10.7856 21.9295 11.1054 21.9295 11.4999Z" fill="#4D4D4D"/>
<path fill-rule="evenodd" clip-rule="evenodd" d="M14.6486 4.93335C14.9275 4.65437 15.3798 4.65437 15.6588 4.93335L21.7203 10.9948C21.9993 11.2738 21.9993 11.7261 21.7203 12.0051L15.6588 18.0665C15.3798 18.3455 14.9275 18.3455 14.6486 18.0665C14.3696 17.7876 14.3696 17.3353 14.6486 17.0563L20.2049 11.4999L14.6486 5.94359C14.3696 5.66462 14.3696 5.21232 14.6486 4.93335Z" fill="#4D4D4D"/>
</svg>
