<svg width="20" height="23" viewBox="0 0 20 23" fill="none" xmlns="http://www.w3.org/2000/svg">
<path fill-rule="evenodd" clip-rule="evenodd" d="M10.6139 0.307327C10.2528 0.0264638 9.74717 0.0264638 9.38606 0.307327L0.386059 7.30733C0.142473 7.49678 0 7.78809 0 8.09668V19.0967C0 19.8923 0.31607 20.6554 0.87868 21.218C1.44129 21.7806 2.20435 22.0967 3 22.0967H7H13H17C17.7957 22.0967 18.5587 21.7806 19.1213 21.218C19.6839 20.6554 20 19.8923 20 19.0967V8.09668C20 7.78809 19.8575 7.49678 19.6139 7.30733L10.6139 0.307327ZM14 20.0967H17C17.2652 20.0967 17.5196 19.9913 17.7071 19.8038C17.8946 19.6162 18 19.3619 18 19.0967V8.58576L10 2.36354L2 8.58576V19.0967C2 19.3619 2.10536 19.6162 2.29289 19.8038C2.48043 19.9913 2.73478 20.0967 3 20.0967H6V11.0967C6 10.5444 6.44772 10.0967 7 10.0967H13C13.5523 10.0967 14 10.5444 14 11.0967V20.0967ZM8 20.0967V12.0967H12V20.0967H8Z" fill="black"/>
</svg>
