<svg width="23" height="22" viewBox="0 0 23 22" fill="none" xmlns="http://www.w3.org/2000/svg">
<path fill-rule="evenodd" clip-rule="evenodd" d="M6.01886 2C3.80972 2 2.01886 3.79086 2.01886 6V16C2.01886 18.2091 3.80972 20 6.01886 20H16.0189C18.228 20 20.0189 18.2091 20.0189 16V6C20.0189 3.79086 18.228 2 16.0189 2H6.01886ZM0.0188599 6C0.0188599 2.68629 2.70515 0 6.01886 0H16.0189C19.3326 0 22.0189 2.68629 22.0189 6V16C22.0189 19.3137 19.3326 22 16.0189 22H6.01886C2.70515 22 0.0188599 19.3137 0.0188599 16V6ZM11.5021 7.98918C10.8779 7.89663 10.2405 8.00324 9.68037 8.29387C9.12027 8.58449 8.66607 9.04432 8.38237 9.60797C8.09868 10.1716 7.99993 10.8103 8.10018 11.4333C8.20043 12.0563 8.49457 12.6319 8.94076 13.0781C9.38695 13.5242 9.96247 13.8184 10.5855 13.9186C11.2085 14.0189 11.8472 13.9201 12.4108 13.6364C12.9745 13.3527 13.4343 12.8985 13.7249 12.3384C14.0156 11.7783 14.1222 11.1409 14.0296 10.5167C13.9352 9.87999 13.6385 9.29055 13.1834 8.83541C12.7283 8.38028 12.1388 8.0836 11.5021 7.98918ZM8.75923 6.51862C9.69272 6.03425 10.7552 5.85655 11.7955 6.01082C12.8566 6.16817 13.8391 6.66265 14.5976 7.4212C15.3562 8.17976 15.8506 9.16216 16.008 10.2233C16.1623 11.2636 15.9846 12.3261 15.5002 13.2596C15.0158 14.1931 14.2494 14.9501 13.31 15.4229C12.3706 15.8957 11.3061 16.0603 10.2677 15.8932C9.2294 15.7262 8.2702 15.2359 7.52654 14.4923C6.78289 13.7486 6.29266 12.7894 6.12558 11.7511C5.9585 10.7128 6.12308 9.64818 6.5959 8.70879C7.06873 7.76938 7.82573 7.00299 8.75923 6.51862ZM16.5189 4.5C15.9666 4.5 15.5189 4.94772 15.5189 5.5C15.5189 6.05228 15.9666 6.5 16.5189 6.5H16.5289C17.0811 6.5 17.5289 6.05228 17.5289 5.5C17.5289 4.94772 17.0811 4.5 16.5289 4.5H16.5189Z" fill="black"/>
</svg>
