<svg width="23" height="21" viewBox="0 0 23 21" fill="none" xmlns="http://www.w3.org/2000/svg">
<path fill-rule="evenodd" clip-rule="evenodd" d="M2.00943 3C2.00943 2.44772 2.45715 2 3.00943 2C3.56171 2 4.00943 2.44772 4.00943 3C4.00943 3.55228 3.56171 4 3.00943 4C2.45715 4 2.00943 3.55228 2.00943 3ZM3.00943 0C1.35258 0 0.00942993 1.34315 0.00942993 3C0.00942993 4.65685 1.35258 6 3.00943 6C4.66628 6 6.00943 4.65685 6.00943 3C6.00943 1.34315 4.66628 0 3.00943 0ZM15.0094 8C13.6833 8 12.4116 8.52678 11.4739 9.46447C10.5362 10.4021 10.0094 11.6739 10.0094 13V19H12.0094V13C12.0094 12.2043 12.3255 11.4413 12.8881 10.8787C13.4507 10.3161 14.2138 10 15.0094 10C15.8051 10 16.5681 10.3161 17.1307 10.8787C17.6934 11.4413 18.0094 12.2043 18.0094 13V19H20.0094V13C20.0094 11.6739 19.4826 10.4021 18.545 9.46447C17.6073 8.52678 16.3355 8 15.0094 8ZM15.0094 6C13.1529 6 11.3724 6.7375 10.0597 8.05025C8.74693 9.36301 8.00943 11.1435 8.00943 13V20C8.00943 20.5523 8.45714 21 9.00943 21H13.0094C13.5617 21 14.0094 20.5523 14.0094 20V13C14.0094 12.7348 14.1148 12.4804 14.3023 12.2929C14.4899 12.1054 14.7442 12 15.0094 12C15.2746 12 15.529 12.1054 15.7165 12.2929C15.9041 12.4804 16.0094 12.7348 16.0094 13V20C16.0094 20.5523 16.4571 21 17.0094 21H21.0094C21.5617 21 22.0094 20.5523 22.0094 20V13C22.0094 11.1435 21.2719 9.36301 19.9592 8.05025C18.6464 6.7375 16.8659 6 15.0094 6ZM0.00942993 8C0.00942993 7.44772 0.457145 7 1.00943 7H5.00943C5.56171 7 6.00943 7.44772 6.00943 8V20C6.00943 20.5523 5.56171 21 5.00943 21H1.00943C0.457145 21 0.00942993 20.5523 0.00942993 20V8ZM2.00943 9V19H4.00943V9H2.00943Z" fill="white"/>
</svg>
