<svg width="20" height="15" viewBox="0 0 20 15" fill="none" xmlns="http://www.w3.org/2000/svg">
<path fill-rule="evenodd" clip-rule="evenodd" d="M0 1.09668C0 0.544395 0.447715 0.0966797 1 0.0966797H19C19.5523 0.0966797 20 0.544395 20 1.09668C20 1.64896 19.5523 2.09668 19 2.09668H1C0.447715 2.09668 0 1.64896 0 1.09668ZM0 7.09668C0 6.54439 0.447715 6.09668 1 6.09668H19C19.5523 6.09668 20 6.54439 20 7.09668C20 7.64896 19.5523 8.09668 19 8.09668H1C0.447715 8.09668 0 7.64896 0 7.09668ZM1 12.0967C0.447715 12.0967 0 12.5444 0 13.0967C0 13.649 0.447715 14.0967 1 14.0967H19C19.5523 14.0967 20 13.649 20 13.0967C20 12.5444 19.5523 12.0967 19 12.0967H1Z" fill="black"/>
</svg>
