<svg width="21" height="23" viewBox="0 0 21 23" fill="none" xmlns="http://www.w3.org/2000/svg">
<path fill-rule="evenodd" clip-rule="evenodd" d="M8.83515 0.419243C9.29068 0.15674 9.80722 0.0185547 10.333 0.0185547C10.8588 0.0185547 11.3754 0.156751 11.8309 0.419275L11.833 0.420478L18.833 4.42047C19.2028 4.63395 19.5217 4.92329 19.7695 5.26821C19.8301 5.32873 19.8839 5.39809 19.9288 5.47576C19.9676 5.54275 19.9977 5.61237 20.0195 5.68332C20.2249 6.09652 20.3325 6.55236 20.333 7.01548V15.0175C20.3325 15.5436 20.1936 16.0603 19.9303 16.5158C19.667 16.9713 19.2886 17.3495 18.833 17.6125L18.8291 17.6147L11.833 21.6125L11.8312 21.6136C11.5141 21.7964 11.1673 21.9189 10.8085 21.9765C10.6671 22.0531 10.5051 22.0966 10.333 22.0966C10.1609 22.0966 9.99893 22.0531 9.85751 21.9765C9.49869 21.9189 9.15199 21.7964 8.83486 21.6136L8.83301 21.6125L1.83687 17.6147L1.83301 17.6125C1.3774 17.3495 0.998978 16.9713 0.7357 16.5158C0.472422 16.0603 0.333547 15.5436 0.333008 15.0175V7.01548C0.333484 6.55163 0.441499 6.09508 0.647504 5.68136C0.669275 5.61109 0.69919 5.54214 0.737586 5.47576C0.782208 5.39862 0.835556 5.32968 0.895661 5.26945C1.14358 4.92399 1.46281 4.63421 1.83301 4.42048L1.83686 4.41825L8.83515 0.419243ZM11.333 19.5948L17.833 15.8805L17.8346 15.8796C17.9858 15.7919 18.1113 15.6662 18.1988 15.5149C18.2865 15.3631 18.3328 15.1908 18.333 15.0155V7.55413L11.333 11.6034V19.5948ZM9.33301 11.6032V19.5948L2.83301 15.8805L2.83143 15.8796C2.68027 15.7919 2.55469 15.6662 2.46724 15.5149C2.37955 15.3632 2.33326 15.1911 2.33301 15.0159V7.55391L9.33301 11.6032ZM10.833 2.15254L17.2941 5.84458L10.3332 9.87123L3.3721 5.84448L9.82915 2.15476L9.83301 2.15253C9.98503 2.06476 10.1575 2.01855 10.333 2.01855C10.5085 2.01855 10.681 2.06477 10.833 2.15254Z" fill="black"/>
</svg>
