<svg width="24" height="20" viewBox="0 0 24 20" fill="none" xmlns="http://www.w3.org/2000/svg">
<path fill-rule="evenodd" clip-rule="evenodd" d="M14.5539 0.360248C15.6027 -0.0400586 16.7492 -0.108602 17.8382 0.163889C18.7042 0.380578 19.5007 0.804613 20.161 1.39516C20.9732 1.09664 21.7435 0.692632 22.452 0.192893L23.0284 1.01006L24 1.24667C23.6575 2.6532 22.9709 3.94962 22.0053 5.02103C22.0202 5.18243 22.0279 5.34449 22.0284 5.50675L22.0284 5.51006C22.0284 11.61 19.0916 16.0851 14.8733 18.3303C10.6793 20.5626 5.31929 20.5378 0.542781 17.8842C0.13797 17.6593 -0.0594763 17.1859 0.0655722 16.74C0.190621 16.2941 0.605447 15.9924 1.06817 16.0108C2.75498 16.0779 4.42479 15.7425 5.94316 15.043C4.44001 14.1155 3.35784 13.0143 2.60548 11.8264C1.60185 10.2417 1.22298 8.56296 1.15445 7.05546C1.08613 5.55234 1.3249 4.19895 1.5759 3.22842C1.702 2.74083 1.83284 2.34356 1.9337 2.06459C1.98419 1.92494 2.02733 1.81447 2.05886 1.73664C2.07463 1.69771 2.08752 1.6669 2.09698 1.64465L2.10855 1.61772L2.11151 1.61097C2.11855 1.59479 2.12605 1.57874 2.134 1.56284L3.02842 2.01006L3.84678 1.43534C4.76232 2.73902 5.98607 3.79605 7.40903 4.51227C8.54088 5.08197 9.77082 5.42198 11.0281 5.51647C11.0208 4.40681 11.3504 3.32071 11.974 2.40211C12.6046 1.47331 13.5051 0.760554 14.5539 0.360248ZM3.43307 4.05366C3.24938 4.85503 3.10269 5.87129 3.15239 6.96465C3.20887 8.20715 3.5175 9.52844 4.29512 10.7563C5.06871 11.9777 6.34446 13.1673 8.43456 14.0962C8.76637 14.2437 8.99216 14.5594 9.02446 14.9211C9.05676 15.2828 8.89048 15.6335 8.59005 15.8374C7.47912 16.5915 6.26262 17.1589 4.98852 17.5257C8.15869 18.3334 11.3354 17.9477 13.9336 16.5648C17.4649 14.6852 20.0279 10.9109 20.0284 5.51172C20.0276 5.29563 20.0068 5.08007 19.9662 4.86781C19.9035 4.53995 20.0086 4.20243 20.2463 3.96805C20.469 3.74836 20.6753 3.51422 20.8641 3.26756C20.6376 3.35111 20.4084 3.42784 20.1768 3.49759C19.8001 3.611 19.392 3.49309 19.1339 3.19629C18.666 2.65838 18.0443 2.27712 17.3527 2.10408C16.6612 1.93103 15.9331 1.97456 15.2671 2.22877C14.6011 2.48298 14.0292 2.93561 13.6288 3.52543C13.2284 4.11526 13.0188 4.81382 13.0283 5.52665L13.0285 5.54006H13.0284V6.54006C13.0284 7.08224 12.5963 7.52567 12.0543 7.53972C10.1321 7.58956 8.22741 7.16325 6.50984 6.29873C5.36427 5.72213 4.32567 4.96254 3.43307 4.05366Z" fill="white"/>
</svg>
