<svg width="24" height="20" viewBox="0 0 24 20" fill="none" xmlns="http://www.w3.org/2000/svg">
<path fill-rule="evenodd" clip-rule="evenodd" d="M14.5539 0.360248C15.6027 -0.0400586 16.7491 -0.108602 17.8382 0.163889C18.7042 0.380578 19.5007 0.804613 20.161 1.39516C20.9732 1.09664 21.7435 0.692632 22.452 0.192893L23.0284 1.01006L24 1.24667C23.6575 2.6532 22.9708 3.94962 22.0053 5.02103C22.0201 5.18243 22.0279 5.34449 22.0284 5.50675L22.0284 5.51006C22.0284 11.61 19.0915 16.0851 14.8732 18.3303C10.6793 20.5626 5.31926 20.5378 0.54275 17.8842C0.137939 17.6593 -0.0595069 17.1859 0.0655417 16.74C0.19059 16.2941 0.605416 15.9924 1.06814 16.0108C2.75495 16.0779 4.42476 15.7425 5.94313 15.043C4.43998 14.1155 3.35781 13.0143 2.60545 11.8264C1.60182 10.2417 1.22295 8.56296 1.15442 7.05546C1.0861 5.55234 1.32487 4.19895 1.57587 3.22842C1.70197 2.74083 1.83281 2.34356 1.93367 2.06459C1.98416 1.92494 2.0273 1.81447 2.05883 1.73664C2.0746 1.69771 2.08749 1.6669 2.09695 1.64465L2.10852 1.61772L2.11148 1.61097C2.11852 1.59479 2.12602 1.57874 2.13397 1.56284L3.02839 2.01006L3.84675 1.43534C4.76229 2.73902 5.98603 3.79605 7.409 4.51227C8.54085 5.08197 9.77079 5.42198 11.0281 5.51647C11.0207 4.40681 11.3504 3.32071 11.974 2.40211C12.6045 1.47331 13.5051 0.760554 14.5539 0.360248ZM3.43304 4.05366C3.24935 4.85503 3.10266 5.87129 3.15236 6.96465C3.20884 8.20715 3.51747 9.52844 4.29509 10.7563C5.06868 11.9777 6.34443 13.1673 8.43453 14.0962C8.76633 14.2437 8.99213 14.5594 9.02443 14.9211C9.05673 15.2828 8.89045 15.6335 8.59002 15.8374C7.47909 16.5915 6.26259 17.1589 4.98849 17.5257C8.15866 18.3334 11.3354 17.9477 13.9335 16.5648C17.4649 14.6852 20.0279 10.9109 20.0284 5.51172C20.0276 5.29563 20.0067 5.08007 19.9662 4.86781C19.9035 4.53995 20.0086 4.20243 20.2462 3.96805C20.469 3.74836 20.6753 3.51422 20.8641 3.26756C20.6376 3.35111 20.4084 3.42784 20.1767 3.49759C19.8001 3.611 19.392 3.49309 19.1338 3.19629C18.666 2.65838 18.0443 2.27712 17.3527 2.10408C16.6611 1.93103 15.9331 1.97456 15.2671 2.22877C14.601 2.48298 14.0291 2.93561 13.6287 3.52543C13.2283 4.11526 13.0187 4.81382 13.0283 5.52665L13.0285 5.54006H13.0284V6.54006C13.0284 7.08224 12.5963 7.52567 12.0543 7.53972C10.1321 7.58956 8.22738 7.16325 6.50981 6.29873C5.36424 5.72213 4.32564 4.96254 3.43304 4.05366Z" fill="black"/>
</svg>
