<svg width="694" height="694" viewBox="0 0 694 694" fill="none" xmlns="http://www.w3.org/2000/svg">
<path fill-rule="evenodd" clip-rule="evenodd" d="M347 566.368C468.154 566.368 566.368 468.153 566.368 347C566.368 225.846 468.154 127.632 347 127.632C225.847 127.632 127.632 225.846 127.632 347C127.632 468.153 225.847 566.368 347 566.368ZM347 568.362C469.255 568.362 568.362 469.255 568.362 347C568.362 224.745 469.255 125.638 347 125.638C224.745 125.638 125.638 224.745 125.638 347C125.638 469.255 224.745 568.362 347 568.362Z" fill="#E3E3E3"/>
<path fill-rule="evenodd" clip-rule="evenodd" d="M347 630.184C503.398 630.184 630.184 503.399 630.184 347C630.184 190.602 503.398 63.8165 347 63.8165C190.602 63.8165 63.816 190.602 63.816 347C63.816 503.399 190.602 630.184 347 630.184ZM347 632.179C504.499 632.179 632.178 504.5 632.178 347C632.178 189.501 504.499 61.8223 347 61.8223C189.5 61.8223 61.8218 189.501 61.8218 347C61.8218 504.5 189.5 632.179 347 632.179Z" fill="#E3E3E3"/>
<path fill-rule="evenodd" clip-rule="evenodd" d="M347 692.006C537.541 692.006 692.006 537.541 692.006 347C692.006 156.459 537.541 1.99425 347 1.99425C156.459 1.99425 1.99425 156.459 1.99425 347C1.99425 537.541 156.459 692.006 347 692.006ZM347 694C538.643 694 694 538.643 694 347C694 155.357 538.643 0 347 0C155.357 0 0 155.357 0 347C0 538.643 155.357 694 347 694Z" fill="#E3E3E3"/>
<circle cx="502.552" cy="504.546" r="78.2701" fill="white" stroke="#E3E3E3" stroke-width="3"/>
<path fill-rule="evenodd" clip-rule="evenodd" d="M468.65 483.807C468.65 476.537 474.543 470.645 481.812 470.645H521.298C528.567 470.645 534.46 476.537 534.46 483.807V523.293C534.46 530.562 528.567 536.455 521.298 536.455H481.812C474.543 536.455 468.65 530.562 468.65 523.293V483.807ZM481.812 479.419C479.389 479.419 477.424 481.384 477.424 483.807V523.293C477.424 525.716 479.389 527.68 481.812 527.68H521.298C523.721 527.68 525.685 525.716 525.685 523.293V483.807C525.685 481.384 523.721 479.419 521.298 479.419H481.812Z" fill="black"/>
<path d="M482.609 485.604C482.609 485.052 483.057 484.604 483.609 484.604H498.563V500.559H482.609V485.604Z" fill="black"/>
<path d="M482.609 485.604C482.609 485.052 483.057 484.604 483.609 484.604H498.563V500.559H482.609V485.604Z" fill="black"/>
<path d="M482.609 485.604C482.609 485.052 483.057 484.604 483.609 484.604H498.563V500.559H482.609V485.604Z" fill="black"/>
<path d="M483.609 522.495C483.057 522.495 482.609 522.047 482.609 521.495V506.541H498.563V522.495H483.609Z" fill="black"/>
<path d="M483.609 522.495C483.057 522.495 482.609 522.047 482.609 521.495V506.541H498.563V522.495H483.609Z" fill="black"/>
<path d="M483.609 522.495C483.057 522.495 482.609 522.047 482.609 521.495V506.541H498.563V522.495H483.609Z" fill="black"/>
<path d="M520.5 521.495C520.5 522.047 520.053 522.495 519.5 522.495H504.546V506.541H520.5V521.495Z" fill="black"/>
<path d="M520.5 521.495C520.5 522.047 520.053 522.495 519.5 522.495H504.546V506.541H520.5V521.495Z" fill="black"/>
<path d="M520.5 521.495C520.5 522.047 520.053 522.495 519.5 522.495H504.546V506.541H520.5V521.495Z" fill="black"/>
<path d="M519.5 484.604C520.053 484.604 520.5 485.052 520.5 485.604V500.559H504.546V484.604H519.5Z" fill="black"/>
<path d="M519.5 484.604C520.053 484.604 520.5 485.052 520.5 485.604V500.559H504.546V484.604H519.5Z" fill="black"/>
<path d="M519.5 484.604C520.053 484.604 520.5 485.052 520.5 485.604V500.559H504.546V484.604H519.5Z" fill="black"/>
<circle cx="193.443" cy="504.546" r="78.2701" fill="white" stroke="#E3E3E3" stroke-width="3"/>
<path fill-rule="evenodd" clip-rule="evenodd" d="M159.54 483.807C159.54 476.537 165.433 470.645 172.702 470.645H212.189C219.458 470.645 225.351 476.537 225.351 483.807V523.293C225.351 530.562 219.458 536.455 212.189 536.455H172.702C165.433 536.455 159.54 530.562 159.54 523.293V483.807ZM172.702 479.419C170.279 479.419 168.315 481.384 168.315 483.807V523.293C168.315 525.716 170.279 527.68 172.702 527.68H212.189C214.612 527.68 216.576 525.716 216.576 523.293V483.807C216.576 481.384 214.612 479.419 212.189 479.419H172.702Z" fill="black"/>
<path fill-rule="evenodd" clip-rule="evenodd" d="M203.414 491.582C203.414 492.134 202.966 492.582 202.414 492.582H174.5C173.948 492.582 173.5 492.134 173.5 491.582V485.604C173.5 485.052 173.948 484.604 174.5 484.604H202.414C202.966 484.604 203.414 485.052 203.414 485.604V491.582Z" fill="black"/>
<path fill-rule="evenodd" clip-rule="evenodd" d="M211.391 505.541C211.391 506.094 210.943 506.541 210.391 506.541H174.5C173.948 506.541 173.5 506.094 173.5 505.541V499.564C173.5 499.012 173.948 498.564 174.5 498.564H210.391C210.943 498.564 211.391 499.012 211.391 499.564V505.541Z" fill="black"/>
<path fill-rule="evenodd" clip-rule="evenodd" d="M195.437 519.5C195.437 520.053 194.989 520.5 194.437 520.5H174.5C173.948 520.5 173.5 520.053 173.5 519.5V513.523C173.5 512.971 173.948 512.523 174.5 512.523H194.437C194.989 512.523 195.437 512.971 195.437 513.523V519.5Z" fill="black"/>
<circle cx="141.592" cy="277.202" r="78.2701" fill="white" stroke="#E3E3E3" stroke-width="3"/>
<path fill-rule="evenodd" clip-rule="evenodd" d="M107.69 256.462C107.69 249.193 113.583 243.3 120.852 243.3H160.338C167.607 243.3 173.5 249.193 173.5 256.462V295.948C173.5 303.217 167.607 309.11 160.338 309.11H120.852C113.583 309.11 107.69 303.217 107.69 295.948V256.462ZM120.852 252.075C118.429 252.075 116.465 254.039 116.465 256.462V295.948C116.465 298.371 118.429 300.335 120.852 300.335H160.338C162.761 300.335 164.726 298.371 164.726 295.948V256.462C164.726 254.039 162.761 252.075 160.338 252.075H120.852Z" fill="black"/>
<path fill-rule="evenodd" clip-rule="evenodd" d="M125.638 305.121L125.638 247.288L133.615 247.288L133.615 305.121L125.638 305.121Z" fill="black"/>
<path fill-rule="evenodd" clip-rule="evenodd" d="M169.512 269.225H111.678V261.248H169.512V269.225Z" fill="black"/>
<path fill-rule="evenodd" clip-rule="evenodd" d="M169.512 291.162H111.678V283.185H169.512V291.162Z" fill="black"/>
<circle cx="552.408" cy="277.202" r="78.2701" fill="white" stroke="#E3E3E3" stroke-width="3"/>
<path fill-rule="evenodd" clip-rule="evenodd" d="M531.668 243.3C524.399 243.3 518.506 249.193 518.506 256.462V295.948C518.506 303.217 524.399 309.11 531.668 309.11H571.154C578.423 309.11 584.316 303.217 584.316 295.948V256.462C584.316 249.193 578.423 243.3 571.154 243.3H531.668ZM527.281 260.283V295.948C527.281 298.371 529.245 300.335 531.668 300.335H571.154C573.577 300.335 575.541 298.371 575.541 295.948V260.283H527.281Z" fill="black"/>
<path d="M541.273 271.703C540.725 272.431 540.463 273.404 540.486 274.621H535.934C535.98 273.392 536.191 272.226 536.567 271.123C536.967 270.156 537.594 269.263 538.449 268.444C539.088 267.864 539.847 267.42 540.725 267.113C541.604 266.806 542.682 266.652 543.959 266.652C546.332 266.652 548.243 267.267 549.691 268.495C551.152 269.712 551.882 271.35 551.882 273.409C551.882 274.865 551.448 276.094 550.581 277.095C550.034 277.721 549.463 278.147 548.87 278.375C549.315 278.375 549.954 278.756 550.787 279.518C552.03 280.667 552.652 282.236 552.652 284.227C552.652 286.32 551.922 288.163 550.461 289.756C549.013 291.337 546.862 292.127 544.011 292.127C540.497 292.127 538.056 290.984 536.687 288.698C535.968 287.481 535.569 285.888 535.489 283.92H540.28C540.28 284.91 540.44 285.729 540.759 286.377C541.353 287.572 542.431 288.169 543.993 288.169C544.952 288.169 545.784 287.845 546.492 287.196C547.21 286.536 547.57 285.592 547.57 284.364C547.57 282.737 546.908 281.651 545.585 281.105C544.832 280.798 543.646 280.644 542.026 280.644V277.163C543.611 277.14 544.718 276.987 545.345 276.702C546.429 276.225 546.971 275.258 546.971 273.802C546.971 272.858 546.691 272.09 546.132 271.498C545.585 270.907 544.809 270.611 543.805 270.611C542.653 270.611 541.809 270.975 541.273 271.703Z" fill="black"/>
<path d="M567.333 291.513H562.337V274.45H556.502V271.14C558.042 271.072 559.12 270.969 559.736 270.833C560.717 270.617 561.515 270.184 562.131 269.536C562.553 269.092 562.873 268.501 563.089 267.761C563.215 267.318 563.278 266.988 563.278 266.772H567.333V291.513Z" fill="black"/>
<circle cx="347" cy="117.661" r="78.2701" fill="white" stroke="#E3E3E3" stroke-width="3"/>
<path fill-rule="evenodd" clip-rule="evenodd" d="M386.343 91.7963C388.21 94.6381 387.183 101.255 387.145 106.857C387.059 119.915 387.34 133.666 387.255 146.724C387.237 149.354 387.107 152.272 385.258 154.145C383.539 155.884 380.873 156.163 378.434 156.34C362.526 157.503 346.412 158.757 330.476 159.595C327.648 159.744 324.842 158.767 322.555 157.094C320.268 155.421 318.128 153.443 316.618 151.048C313.471 146.052 309.73 142.714 308.404 137.576C307.684 134.784 307.642 131.871 307.606 128.987C307.445 116.252 307.283 103.518 307.124 90.7832C307.09 88.0491 307.088 85.1674 308.416 82.7723C309.744 80.3772 312.6 80.7082 315.3 80.0421C327.106 78.7359 339.722 77.5792 351.528 76.275C355.708 75.8123 360.011 75.3596 364.063 76.4924C372.529 78.8615 383.396 87.3132 386.343 91.7963Z" fill="#373837"/>
<path fill-rule="evenodd" clip-rule="evenodd" d="M319.344 90.6377C322.033 91.9698 325.18 91.8562 328.175 91.7126L374.982 89.4611C375.614 89.4312 375.921 88.7032 375.532 88.2047C372.956 84.8982 369.233 82.4911 365.15 81.5339C361.431 80.6624 357.548 80.9616 353.739 81.2667C347.18 81.7932 340.621 82.3176 334.062 82.8441C330.815 83.1054 327.571 83.3646 324.324 83.6259C322.685 83.7575 321.044 83.8891 319.404 84.0207C318.567 84.0885 317.731 84.1504 316.893 84.2222C316.379 84.266 315.781 84.3099 315.346 84.629C314.281 85.4107 315.573 87.1318 316.114 87.8796C316.951 89.0383 318.062 90.0015 319.344 90.6377Z" fill="white"/>
<path fill-rule="evenodd" clip-rule="evenodd" d="M332.139 97.6122C346.889 96.655 361.64 95.6977 376.39 94.7405C377.836 94.6468 379.445 94.6049 380.54 95.5521C381.77 96.6151 381.842 98.4638 381.82 100.089C381.611 115.126 381.401 129.203 381.19 144.24C381.164 146.041 381.03 148.083 379.642 149.229C378.143 150.47 375.961 150.627 374.017 150.725C366.644 151.096 359.534 150.887 352.307 151.635C344.286 152.464 337.229 152.915 329.182 152.406C327.471 152.299 325.634 152.111 324.33 150.998C322.451 149.395 322.996 146.641 323.085 144.174C323.219 140.515 322.683 136.474 322.816 132.813C322.95 129.153 323.087 125.382 323.219 121.721C323.353 118.061 323.085 114.424 323.219 110.764C323.287 108.918 322.78 107.173 322.848 105.326C322.882 104.419 322.914 103.513 322.948 102.606C322.976 101.858 322.844 100.891 323.089 100.175C323.428 99.1857 325.335 98.715 326.206 98.4558C327.746 97.9971 329.353 97.8176 330.951 97.696C331.348 97.6641 331.745 97.6381 332.139 97.6122Z" fill="white"/>
<path d="M386.343 91.7963C388.21 94.6381 387.183 101.255 387.145 106.857C387.059 119.915 387.34 133.666 387.255 146.724C387.237 149.354 387.107 152.272 385.258 154.145C383.539 155.884 380.873 156.163 378.434 156.34C362.526 157.503 346.412 158.757 330.476 159.595C327.648 159.744 324.842 158.767 322.555 157.094C320.268 155.421 318.128 153.443 316.618 151.048C313.471 146.052 309.73 142.714 308.404 137.576C307.684 134.784 307.642 131.871 307.606 128.987C307.445 116.252 307.283 103.518 307.124 90.7832C307.09 88.0491 307.088 85.1674 308.416 82.7723C309.744 80.3772 312.6 80.7082 315.3 80.0421C327.106 78.7359 339.722 77.5792 351.528 76.275C355.708 75.8123 360.011 75.3596 364.063 76.4924C372.529 78.8615 383.396 87.3132 386.343 91.7963Z" stroke="#010101" stroke-miterlimit="10"/>
<path d="M319.344 90.6377C322.033 91.9698 325.18 91.8562 328.175 91.7126L374.982 89.4611C375.614 89.4312 375.921 88.7032 375.532 88.2047C372.956 84.8982 369.233 82.4911 365.15 81.5339C361.431 80.6624 357.548 80.9616 353.739 81.2667C347.18 81.7932 340.621 82.3176 334.062 82.8441C330.815 83.1054 327.571 83.3646 324.324 83.6259C322.685 83.7575 321.044 83.8891 319.404 84.0207C318.567 84.0885 317.731 84.1504 316.893 84.2222C316.379 84.266 315.781 84.3099 315.346 84.629C314.281 85.4107 315.573 87.1318 316.114 87.8796C316.951 89.0383 318.062 90.0015 319.344 90.6377Z" stroke="#010101" stroke-miterlimit="10"/>
<path d="M332.139 97.6122C346.889 96.655 361.64 95.6977 376.39 94.7405C377.836 94.6468 379.445 94.6049 380.54 95.5521C381.77 96.6151 381.842 98.4638 381.82 100.089C381.611 115.126 381.401 129.203 381.19 144.24C381.164 146.041 381.03 148.083 379.642 149.229C378.143 150.47 375.961 150.627 374.017 150.725C366.644 151.096 359.534 150.887 352.307 151.635C344.286 152.464 337.229 152.915 329.182 152.406C327.471 152.299 325.634 152.111 324.33 150.998C322.451 149.395 322.996 146.641 323.085 144.174C323.219 140.515 322.683 136.474 322.816 132.813C322.95 129.153 323.087 125.382 323.219 121.721C323.353 118.061 323.085 114.424 323.219 110.764C323.287 108.918 322.78 107.173 322.848 105.326C322.882 104.419 322.914 103.513 322.948 102.606C322.976 101.858 322.844 100.891 323.089 100.175C323.428 99.1857 325.335 98.715 326.206 98.4558C327.746 97.9971 329.353 97.8176 330.951 97.696C331.348 97.6641 331.745 97.6381 332.139 97.6122Z" stroke="#010101" stroke-miterlimit="10"/>
<path fill-rule="evenodd" clip-rule="evenodd" d="M369.585 107.47C369.623 117.295 369.661 127.121 369.699 136.947C369.707 138.859 370.205 140.847 369.26 142.509C368.331 144.142 366.323 144.978 364.448 144.83C362.573 144.682 360.848 143.681 359.49 142.381C358.132 141.081 357.095 139.489 356.084 137.904C351.555 130.82 347.088 123.705 343.032 116.34C342.97 123.974 342.908 131.61 342.846 139.244C342.842 139.812 342.854 140.435 343.217 140.873C343.614 141.352 344.306 141.458 344.928 141.432C345.55 141.406 346.185 141.288 346.787 141.45C347.062 141.524 347.329 141.663 347.513 141.883C348.011 142.479 347.702 143.452 347.082 143.919C346.46 144.385 345.646 144.481 344.872 144.561C341.456 144.912 338.04 145.263 334.626 145.616C334.237 145.656 333.83 145.694 333.473 145.534C332.811 145.241 332.592 144.325 332.907 143.673C333.222 143.021 333.934 142.636 334.648 142.523C335.362 142.409 336.261 142.098 336.975 142.216C337.009 132.336 337.045 122.455 337.079 112.575C337.081 112.009 337.075 111.41 336.784 110.926C336.445 110.359 335.771 110.062 335.113 110.01C334.454 109.959 333.8 110.116 333.158 110.272C332.538 109.787 332.494 108.79 332.819 108.072C333.144 107.354 333.832 106.855 334.572 106.588C335.312 106.321 336.106 106.253 336.889 106.189C340.549 105.89 344.208 105.591 347.868 105.29C352.435 114.244 358.015 122.756 364.147 130.721C364.031 123.192 363.989 115.804 363.872 108.273C362.462 108.066 361.134 107.805 359.722 107.597C359.632 106.508 360.172 105.635 361.149 105.146C362.127 104.658 363.251 104.574 364.342 104.5C367.09 104.315 369.836 104.127 372.585 103.942C372.959 103.916 373.382 103.908 373.651 104.169C374.066 104.57 373.815 105.28 373.454 105.729C372.573 106.822 370.987 107.551 369.585 107.47Z" fill="#373837"/>
<path d="M369.585 107.47C369.623 117.295 369.661 127.121 369.699 136.947C369.707 138.859 370.205 140.847 369.26 142.509C368.331 144.142 366.323 144.978 364.448 144.83C362.573 144.682 360.848 143.681 359.49 142.381C358.132 141.081 357.095 139.489 356.084 137.904C351.555 130.82 347.088 123.705 343.032 116.34C342.97 123.974 342.908 131.61 342.846 139.244C342.842 139.812 342.854 140.435 343.217 140.873C343.614 141.352 344.306 141.458 344.928 141.432C345.55 141.406 346.185 141.288 346.787 141.45C347.062 141.524 347.329 141.663 347.513 141.883C348.011 142.479 347.702 143.452 347.082 143.919C346.46 144.385 345.646 144.481 344.872 144.561C341.456 144.912 338.04 145.263 334.626 145.616C334.237 145.656 333.83 145.694 333.473 145.534C332.811 145.241 332.592 144.325 332.907 143.673C333.222 143.021 333.934 142.636 334.648 142.523C335.362 142.409 336.261 142.098 336.975 142.216C337.009 132.336 337.045 122.455 337.079 112.575C337.081 112.009 337.075 111.41 336.784 110.926C336.445 110.359 335.771 110.062 335.113 110.01C334.454 109.959 333.8 110.116 333.158 110.272C332.538 109.787 332.494 108.79 332.819 108.072C333.144 107.354 333.832 106.855 334.572 106.588C335.312 106.321 336.106 106.253 336.889 106.189C340.549 105.89 344.208 105.591 347.868 105.29C352.435 114.244 358.015 122.756 364.147 130.721C364.031 123.192 363.989 115.804 363.872 108.273C362.462 108.066 361.134 107.805 359.722 107.597C359.632 106.508 360.172 105.635 361.149 105.146C362.127 104.658 363.251 104.574 364.342 104.5C367.09 104.315 369.836 104.127 372.585 103.942C372.959 103.916 373.382 103.908 373.651 104.169C374.066 104.57 373.815 105.28 373.454 105.729C372.573 106.822 370.987 107.551 369.585 107.47Z" stroke="#010101" stroke-miterlimit="10" stroke-linejoin="round"/>
</svg>
